<?xml version="1.0" standalone="no"?><!DOCTYPE svg PUBLIC "-//W3C//DTD SVG 1.1//EN" "http://www.w3.org/Graphics/SVG/1.1/DTD/svg11.dtd"><svg t="1548495352834" class="icon" style="" viewBox="0 0 1024 1024" version="1.1" xmlns="http://www.w3.org/2000/svg" p-id="4243" xmlns:xlink="http://www.w3.org/1999/xlink" width="20" height="20"><defs><style type="text/css"></style></defs><path d="M541.4 898.1h-60.1c-0.7-1.9-2.5-1.4-3.9-1.6-16.6-1.6-33.1-4.1-49.3-7.7-155.2-34.5-273.7-162.2-296.8-319.5-1.3-9-1.1-18.2-4.2-26.9v-60.1c1.9-0.7 1.4-2.5 1.6-3.9 1.4-10.4 2.5-20.9 4.3-31.2 29.5-165.4 157.1-289.4 323.7-315 8.2-1.3 16.7-0.8 24.5-4h60.1c0.6 1.5 1.9 1.4 3.2 1.5 12.3 0.8 24.5 2.6 36.6 4.8 161.8 29.3 287.5 159.4 311.6 321 1.5 10 1.4 20.2 4.4 30V544c-1.5 0.5-1.4 1.9-1.6 3.1-1.5 10.9-2.6 21.9-4.5 32.7-27.4 161.9-160.3 291.4-322.1 314-9.1 1.4-18.6 1.2-27.5 4.3z m-68.7-215.5c13.2 0.2 23.5-5.7 32.6-14.8 46.5-46.7 93.1-93.4 139.7-140 28.1-28.1 56.2-56.2 84.3-84.4 14.2-14.3 17.5-33.9 8.9-50.1-13.7-25.7-46.5-30.2-67.7-9-64 64-128 128.1-191.8 192.3-4.5 4.5-6.8 4.6-11.3-0.1-28.6-29.1-57.5-57.8-86.3-86.7-9.7-9.7-21.3-14.3-34.8-12.8-16.7 1.8-29 10.5-34.8 26.4-6.2 16.9-2.4 32.4 10.4 45.3 40.4 40.5 80.8 81 121.3 121.4 8 8 17.8 12.6 29.5 12.5z" p-id="4244" fill="#fb4075"></path></svg>