<?xml version="1.0" standalone="no"?><!DOCTYPE svg PUBLIC "-//W3C//DTD SVG 1.1//EN" "http://www.w3.org/Graphics/SVG/1.1/DTD/svg11.dtd"><svg t="1548494226710" class="icon" style="" viewBox="0 0 1024 1024" version="1.1" xmlns="http://www.w3.org/2000/svg" p-id="16689" xmlns:xlink="http://www.w3.org/1999/xlink" width="25" height="25"><defs><style type="text/css"></style></defs><path d="M778.81696 236.064c99.584 99.616 142.048 212.64 128.224 304.224 0 0-4.8 29.024 14.112 47.968a53.248 53.248 0 0 0 75.072 0.128c12.832-12.8 15.648-33.696 15.648-33.696 11.424-79.136-2.944-238.4-158.144-393.536C698.56096 5.984 539.32896-8.384 460.19296 3.04c0 0-20.864 2.752-33.696 15.616a53.248 53.248 0 0 0 0.128 75.072c18.944 18.944 47.968 14.112 47.968 14.112 91.584-13.824 204.608 28.64 304.224 128.224m-257.6-40.96s-27.456-4.288-46.688 14.944a53.44 53.44 0 0 0 0.224 74.72c12.32 12.32 29.696 14.944 29.696 14.944 33.888 6.368 84.928 17.12 139.264 71.456 54.336 54.304 65.088 105.376 71.456 139.264 0 0 2.624 17.376 14.944 29.728a53.44 53.44 0 0 0 74.72 0.192c19.232-19.232 14.944-46.72 14.944-46.72a360.96 360.96 0 0 0-101.12-197.408 361.152 361.152 0 0 0-197.44-101.12m-131.968 431.072c91.008 90.368 196.384 176.672 237.76 135.008 59.2-59.648 95.68-111.584 227.104-6.752 131.424 104.864 31.04 175.424-26.336 233.248-66.176 66.688-314.112 4.672-559.872-239.232C22.14496 504.512-41.75904 257.056 24.48096 190.336 81.85696 132.512 151.68096 31.648 257.47296 162.304c105.824 130.592 54.208 167.456-5.024 227.136-41.344 41.664 45.76 146.368 136.8 236.736" p-id="16690" fill="#ffffff"></path></svg>