<?xml version="1.0" standalone="no"?><!DOCTYPE svg PUBLIC "-//W3C//DTD SVG 1.1//EN" "http://www.w3.org/Graphics/SVG/1.1/DTD/svg11.dtd"><svg t="1548494410473" class="icon" style="" viewBox="0 0 1024 1024" version="1.1" xmlns="http://www.w3.org/2000/svg" p-id="18890" xmlns:xlink="http://www.w3.org/1999/xlink" width="32" height="32"><defs><style type="text/css"></style></defs><path d="M965.731 0a57.542 57.542 0 0 1 40.25 16.73A51.662 51.662 0 0 1 1024 55.644v912.714a51.514 51.514 0 0 1-18.02 38.912A57.889 57.889 0 0 1 965.732 1024H704.925V628.901h133.219L857.6 473.038H705.024V371.283q0-76.222 77.725-76.288h80.483V161.214a660.463 660.463 0 0 0-119.296-8.258 193.239 193.239 0 0 0-142.947 54.206q-54.371 54.387-54.272 151.767v114.076h-133.22v155.863h133.187V1024H55.494A57.13 57.13 0 0 1 0 968.357V55.643A57.13 57.13 0 0 1 55.494 0h910.237z" fill="#ffffff" p-id="18891"></path></svg>