<?xml version="1.0" standalone="no"?><!DOCTYPE svg PUBLIC "-//W3C//DTD SVG 1.1//EN" "http://www.w3.org/Graphics/SVG/1.1/DTD/svg11.dtd"><svg t="1548506258810" class="icon" style="" viewBox="0 0 1024 1024" version="1.1" xmlns="http://www.w3.org/2000/svg" p-id="8787" xmlns:xlink="http://www.w3.org/1999/xlink" width="32" height="32"><defs><style type="text/css"></style></defs><path d="M862.3 316c-1.8-16.1-15.5-28.3-31.6-28.3H671.8v-31.8c0-87.7-71.3-159.1-158.9-159.1-87.6 0-158.9 71.4-158.9 159.1v31.8H195.2c-16.2 0-29.8 12.2-31.6 28.3L100 888.9c-1 9 1.9 18 8 24.8 6 6.7 14.6 10.6 23.6 10.6h762.6c9 0 17.6-3.9 23.7-10.6 6-6.8 8.9-15.8 7.9-24.8L862.3 316zM385.7 478.7c-17.6 0-31.8-14.3-31.8-31.8 0-17.6 14.3-31.8 31.8-31.8s31.8 14.3 31.8 31.8c0.1 17.6-14.1 31.8-31.8 31.8z m222.6-190.9H417.6V256c0-52.6 42.8-95.5 95.3-95.5 52.6 0 95.4 42.8 95.4 95.5v31.8z m32.1 190.9c-17.6 0-31.8-14.3-31.8-31.8 0-17.6 14.3-31.8 31.8-31.8 17.6 0 31.8 14.3 31.8 31.8 0 17.6-14.2 31.8-31.8 31.8z m0 0" fill="#ffffff" p-id="8788"></path></svg>