<?xml version="1.0" standalone="no"?><!DOCTYPE svg PUBLIC "-//W3C//DTD SVG 1.1//EN" "http://www.w3.org/Graphics/SVG/1.1/DTD/svg11.dtd"><svg t="1548511409569" class="icon" style="" viewBox="0 0 1024 1024" version="1.1" xmlns="http://www.w3.org/2000/svg" p-id="894" xmlns:xlink="http://www.w3.org/1999/xlink" width="32" height="32"><defs><style type="text/css"></style></defs><path d="M335.36284192 131.01155112l225.02182051 0c26.8435456 0 48.88176514-21.87251863 48.88176514-48.88176513l0-1.82270989c0-26.8435456-21.87251863-48.88176514-48.88176514-48.88176514L335.36284192 31.42531096c-26.8435456 0-48.88176514 21.87251863-48.88176514 48.88176514l0 1.82270989C286.48107678 109.1390325 308.35359541 131.01155112 335.36284192 131.01155112z" p-id="895" fill="#ffffff"></path><path d="M436.60609106 722.77154323L241.90753502 722.77154323l0-62.13783704 210.77154322 0c38.77401031-98.59203476 134.54912979-168.51781405 246.89433917-168.51781404 39.93391661 0 77.54802062 9.11354943 111.51670486 24.85513482L811.09012227 128.56812027c0-37.94550581-30.65466627-68.60017209-68.60017208-68.6001721l-88.64998086 0 0 0.9942054c0 51.53297952-41.75662649 93.4553069-93.4553069 93.45530689L335.36284192 154.41746046c-51.53297952 0-93.4553069-41.75662649-93.4553069-93.45530689l0-0.9942054-88.64998085 0c-37.94550581 0-68.60017209 30.65466627-68.60017209 68.6001721l0 680.69929211c0 37.94550581 30.65466627 68.60017209 68.60017209 68.6001721l310.0263816 0C444.7254351 841.74478853 434.12057758 800.81666655 434.12057758 757.40303107 434.12057758 745.63826725 435.11478297 734.20490525 436.60609106 722.77154323zM241.90753502 317.30144395l411.76673343 0 0 62.13783703L241.90753502 379.43928098 241.90753502 317.30144395zM241.90753502 488.96757507l216.40537378 0 0 62.13783704L241.90753502 551.10541211 241.90753502 488.96757507z" p-id="896" fill="#ffffff"></path><path d="M836.00279199 865.49755197c28.99765728-35.45999234 45.23634537-79.7021323 45.23634534-126.76118757 0-110.35679858-89.80988713-200.33238661-200.33238659-200.3323866s-200.33238661 89.80988713-200.33238662 200.3323866S570.54995217 939.06875102 680.90675074 939.06875102c44.90494356 0 87.32437365-14.58167909 122.78436597-42.08802829 1.3256072-0.99420539 2.48551348-2.31981259 3.81112067-3.31401798l101.40895005 101.40895005 28.3348537-28.3348537L836.00279199 865.49755197zM779.16738371 865.33185106c-28.33485369 22.03821954-62.30353794 33.63728245-98.26063297 33.63728246-88.31857904 0-160.2327691-71.91419006-160.2327691-160.23276912s71.91419006-160.2327691 160.2327691-160.23276911 160.2327691 71.91419006 160.23276911 160.23276911C841.13951985 788.61233493 818.43849672 834.6771848 779.16738371 865.33185106z" p-id="897" fill="#ffffff"></path></svg>