<?xml version="1.0" standalone="no"?><!DOCTYPE svg PUBLIC "-//W3C//DTD SVG 1.1//EN" "http://www.w3.org/Graphics/SVG/1.1/DTD/svg11.dtd"><svg t="1548764873146" class="icon" style="" viewBox="0 0 1024 1024" version="1.1" xmlns="http://www.w3.org/2000/svg" p-id="6992" xmlns:xlink="http://www.w3.org/1999/xlink" width="32" height="32"><defs><style type="text/css"></style></defs><path d="M199.111111 853.333333h625.777778a56.888889 56.888889 0 0 1-56.888889 56.888889H256a56.888889 56.888889 0 0 1-56.888889-56.888889z m-13.368889-56.888889L75.832889 386.104889a54.328889 54.328889 0 0 1 11.008-49.208889 28.558222 28.558222 0 0 1 40.192-3.413333l207.616 174.222222L463.502222 284.444444a56.888889 56.888889 0 0 1 98.531556 0l128.711111 222.947556 207.36-173.994667a28.814222 28.814222 0 0 1 40.362667 3.271111 53.76 53.76 0 0 1 11.207111 49.038223L839.594667 796.444444H185.799111zM512 227.555556a56.888889 56.888889 0 1 1 0-113.777778 56.888889 56.888889 0 0 1 0 113.777778z m426.666667 85.333333a56.888889 56.888889 0 1 1 0-113.777778 56.888889 56.888889 0 0 1 0 113.777778zM85.333333 312.888889a56.888889 56.888889 0 1 1 0-113.777778 56.888889 56.888889 0 0 1 0 113.777778z" p-id="6993" fill="#ffffff"></path></svg>