<?xml version="1.0" standalone="no"?><!DOCTYPE svg PUBLIC "-//W3C//DTD SVG 1.1//EN" "http://www.w3.org/Graphics/SVG/1.1/DTD/svg11.dtd"><svg t="1548494684075" class="icon" style="" viewBox="0 0 1024 1024" version="1.1" xmlns="http://www.w3.org/2000/svg" p-id="20763" xmlns:xlink="http://www.w3.org/1999/xlink" width="48" height="48"><defs><style type="text/css"></style></defs><path d="M707.8 382.3v50H793c6.8 0 10.1 1.7 13.4 5.1 3.4 3.3 5.1 6.6 5.1 11.6 0 5.1-1.7 8.3-5.1 11.7-3.3 3.4-8.3 5.1-13.4 5.1h-85.2v56.7h95.3c6.7 0 11.7 1.6 15 5 3.4 3.3 5 6.7 5 11.7 0 5-1.6 8.4-5 11.6-3.3 3.4-8.3 5-15 5H692.8c-8.4 0-15.1-1.6-18.4-6.6-3.3-3.3-4.9-10-4.9-18.3V379c0-6.7 1.6-10.1 3.3-15 1.7-3.3 5-6.7 8.3-8.4 3.4-1.7 8.5-3.3 13.5-3.3h103.7c6.6 0 11.7 1.6 15 4.9 3.3 3.4 5 6.7 5 11.7 0 5.1-1.7 8.4-5 11.7-3.3 0-8.4 1.8-15 1.8l-90.5-0.1z m-195.6-10.1l78.6 118.6V370.6c0-8.4 1.6-13.4 5.1-16.7 3.3-3.4 8.3-6.6 13.3-6.6s10 1.6 13.4 6.6c3.3 3.3 5 10 5 16.7v158.6c0 18.4-6.8 26.6-21.8 26.6-3.3 0-6.6 0-10-1.6-3.4-1.7-5.1-3.4-8.5-5-3.3-1.6-5-5-6.6-8.3-1.7-3.3-5-6.7-6.8-10.1L497.1 414v118.6c0 8.3-1.6 13.4-5 16.6-3.4 3.3-8.4 6.6-13.4 6.6s-10-1.6-13.4-6.6c-3.3-3.3-5-10-5-16.6V377.3c0-6.6 0-11.7 1.7-15.1 1.7-3.3 5-6.6 8.3-10 3.3-3.4 8.4-3.4 13.4-3.4 3.3 0 6.7 0 10 1.7s5 3.4 6.7 5c1.7 1.6 3.4 5 6.7 8.4 0 1.7 3.4 5 5.1 8.3zM380 530.9V372.2c0-8.3 1.7-15.1 5-18.4 3.4-3.4 8.4-6.6 15.1-6.6 6.7 0 11.7 1.6 15 6.6 3.4 3.3 5 10 5 18.4v158.6c0 8.4-1.7 15.1-5 18.3-3.3 3.3-8.4 6.6-15 6.6-6.7 0-10-1.6-15.1-6.6-3.3-3.1-5-9.9-5-18.2zM264.6 372.2v146.9h82c6.7 0 11.7 1.7 15 5 3.4 3.3 5 6.7 5 11.7 0 5.1-1.7 8.4-5 11.8-3.3 3.3-8.3 4.9-15 4.9h-98.7c-8.3 0-15-1.7-18.4-6.6-3.3-3.4-5-10.1-5-18.5V372.1c0-8.3 1.7-15.1 5-18.4 3.3-3.4 8.3-6.6 15-6.6s11.7 1.6 15.1 6.6c3.4 3.5 5 10.2 5 18.5zM477 869.9c-3.3 19.9-20 36.6-18.4 51.7 1.7 13.3 18.4 23.4 28.4 19.9 200.8-93.4 358-245.3 364.7-252 68.5-63.4 108.7-146.9 108.7-238.7 1.7-205.4-199-369-448.2-369S62.3 245.3 62.3 447.4c0 192.1 182.3 350.6 413 365.6 0 0 8.4 18.4 1.7 56.9z" p-id="20764" fill="#ffffff"></path></svg>