<?xml version="1.0" standalone="no"?><!DOCTYPE svg PUBLIC "-//W3C//DTD SVG 1.1//EN" "http://www.w3.org/Graphics/SVG/1.1/DTD/svg11.dtd"><svg t="1548498718466" class="icon" style="" viewBox="0 0 1024 1024" version="1.1" xmlns="http://www.w3.org/2000/svg" p-id="6525" xmlns:xlink="http://www.w3.org/1999/xlink" width="32" height="32"><defs><style type="text/css"></style></defs><path d="M264.533333 384c0 0-38.4 12.8-25.6 98.133333 0 0-72.533333 59.733333-85.333333 153.6 0 0-8.533333 157.866667 81.066667 21.333333 0 0 21.333333 51.2 55.466667 98.133333 0 0-68.266667 21.333333-59.733333 76.8 0 0-4.266667 64 140.8 59.733333 0 0 102.4-8.533333 132.266667-46.933333L512 844.8l0 0 12.8 0c29.866667 42.666667 132.266667 46.933333 132.266667 46.933333 145.066667 4.266667 140.8-59.733333 140.8-59.733333 4.266667-55.466667-59.733333-76.8-59.733333-76.8 38.4-46.933333 55.466667-98.133333 55.466667-98.133333 89.6 140.8 81.066667-21.333333 81.066667-21.333333-17.066667-93.866667-85.333333-153.6-85.333333-153.6 8.533333-85.333333-25.6-98.133333-25.6-98.133333C750.933333 123.733333 520.533333 128 512 128l0 0C503.466667 128 273.066667 123.733333 264.533333 384z" p-id="6526" fill="#ffffff"></path></svg>