<?xml version="1.0" standalone="no"?><!DOCTYPE svg PUBLIC "-//W3C//DTD SVG 1.1//EN" "http://www.w3.org/Graphics/SVG/1.1/DTD/svg11.dtd"><svg t="1548495050321" class="icon" style="" viewBox="0 0 1024 1024" version="1.1" xmlns="http://www.w3.org/2000/svg" p-id="22153" xmlns:xlink="http://www.w3.org/1999/xlink" width="32" height="32"><defs><style type="text/css"></style></defs><path d="M66.685 966.594c17.067-48.097 29.479-94.642 48.097-139.636 9.309-23.273 7.758-41.891-7.758-63.612-57.406-86.885-79.127-183.079-71.37-287.03C51.169 263.758 204.769 88.437 408.018 44.995c259.103-55.855 512 103.952 569.406 363.055 57.406 260.655-108.606 507.345-352.194 566.303-128.776 31.03-249.794 10.861-363.055-57.406-10.861-6.206-20.17-6.206-31.03-3.103-49.648 17.067-99.297 32.582-148.945 48.097-4.655 1.552-7.758 1.552-15.515 4.655z m153.6-594.23c1.552 15.515 3.103 31.03 7.758 46.545 9.309 43.442 34.133 80.679 55.855 117.915 79.127 127.224 187.733 214.109 332.024 257.552 52.752 15.515 99.297 7.758 145.842-21.721 37.236-23.273 48.097-58.958 49.648-99.297 0-6.206-4.655-17.067-9.309-20.17-40.339-21.721-82.23-43.442-122.57-65.164-12.412-6.206-23.273-3.103-32.582 7.758-15.515 17.067-31.03 35.685-44.994 52.752-7.758 10.861-18.618 10.861-29.479 6.206-85.333-37.236-148.945-97.745-192.388-178.424-6.206-12.412-4.655-21.721 4.655-31.03 12.412-13.964 24.824-27.927 35.685-43.442 4.655-7.758 7.758-21.721 4.655-29.479-13.964-41.891-31.03-83.782-46.545-124.121-3.103-7.758-10.861-13.964-18.618-15.515-10.861-3.103-23.273-3.103-34.133-3.103-17.067-1.552-32.582 4.655-44.994 15.515-38.788 32.582-58.958 74.473-60.509 127.224z" fill="#ffffff" p-id="22154"></path></svg>