<?xml version="1.0" standalone="no"?><!DOCTYPE svg PUBLIC "-//W3C//DTD SVG 1.1//EN" "http://www.w3.org/Graphics/SVG/1.1/DTD/svg11.dtd"><svg class="icon" width="16px" height="16.00px" viewBox="0 0 1024 1024" version="1.1" xmlns="http://www.w3.org/2000/svg"><path fill="#FF232E" d="M512.064 903.616c-160.128-180.864-319.936-361.28-480-542.08 1.216-1.664 2.304-3.2 3.456-4.736 57.856-77.44 115.84-154.944 173.568-232.448 2.176-2.944 4.48-3.904 8-3.904 196.736 0.064 393.408 0.064 590.08 0 3.264 0 5.504 0.64 7.616 3.456 58.24 78.144 116.544 156.16 174.848 234.176 0.768 1.024 1.344 2.048 2.368 3.456C832.128 542.08 672.256 722.624 512.064 903.616zM512.256 779.392c4.416-5.12 8.512-10.112 12.864-14.72 3.968-4.288 6.528-9.024 8.128-14.656 25.344-86.336 50.88-172.544 76.416-258.816C612.224 482.688 614.656 474.24 617.28 465.344 615.104 465.472 613.696 465.472 612.288 465.728 584.64 470.528 556.928 475.392 529.28 480.064 521.408 481.408 513.152 484.032 505.6 482.752 482.112 479.04 458.816 473.728 435.456 469.056 426.688 467.264 417.856 465.6 408.448 463.808c0.576 2.56 0.96 4.288 1.472 5.952 27.2 92.032 54.656 184 81.408 276.224C495.168 759.424 502.4 769.536 512.256 779.392zM325.12 395.072c0-1.088 0.064-1.6 0-2.048C310.464 343.36 295.808 293.696 280.96 244.16 280.576 242.752 278.144 241.088 276.608 241.024 268.8 240.704 260.928 241.152 253.056 240.832 248.896 240.64 246.272 242.112 243.776 245.312c-20.352 25.92-40.96 51.648-61.376 77.44-10.176 12.8-20.288 25.664-30.592 38.592 3.84 4.544 6.592 9.024 13.312 9.984C209.088 377.6 253.056 384.32 297.088 390.912 306.304 392.256 315.584 393.664 325.12 395.072zM872 361.472c-0.192-0.448-0.192-0.64-0.32-0.768-30.4-39.104-60.672-78.208-91.2-117.184-1.216-1.472-3.84-2.432-5.824-2.56-7.872-0.256-15.68 0.128-23.488-0.192-4.16-0.192-5.824 1.28-6.912 5.184-13.696 46.72-27.584 93.44-41.344 140.096-0.832 2.752-1.472 5.632-2.304 8.64 1.216 0.064 1.664 0.192 2.176 0.128 51.008-7.68 102.016-15.552 153.088-22.784C863.488 371.008 868.224 367.744 872 361.472zM582.528 412.736c-0.832-2.624-1.28-4.288-1.856-5.952C562.176 356.032 543.616 305.28 525.12 254.528c-5.056-13.696-5.056-13.568-19.84-13.696-3.84 0-5.568 1.216-6.848 4.8-19.456 53.632-39.04 107.2-58.624 160.832C439.232 408.064 438.784 409.792 438.272 411.648c1.216 0.32 2.048 0.576 2.88 0.704 18.816 2.816 37.632 5.76 56.448 8.448 6.656 0.96 13.44 2.048 20.032 1.536 11.136-0.96 22.208-3.072 33.28-4.8C561.216 416 571.584 414.4 582.528 412.736zM219.904 438.912C219.712 439.296 219.584 439.68 219.392 440.064c60.032 69.632 120 139.264 180.032 208.96 0.768-1.28 0.768-1.984 0.512-2.688C381.696 584.32 363.264 522.368 345.024 460.288 344.128 457.344 342.912 456 339.776 455.552 312.384 451.904 285.12 448 257.856 444.16 245.184 442.432 232.512 440.64 219.904 438.912zM805.184 439.552c-1.728 0-2.432-0.064-3.072 0-38.08 5.248-76.096 10.624-114.24 15.68-4.736 0.64-6.4 2.88-7.552 7.04-15.168 51.84-30.592 103.68-45.888 155.52-2.688 9.152-5.376 18.304-8 27.52 0.32 0.192 0.704 0.384 1.024 0.576C686.464 577.28 745.536 508.736 805.184 439.552zM583.424 241.152c18.432 50.56 36.544 100.288 54.72 150.016C638.592 391.04 638.976 390.912 639.36 390.784c14.72-49.728 29.376-99.52 44.224-149.632C650.112 241.152 617.216 241.152 583.424 241.152zM384.128 382.464C384.512 382.592 384.896 382.656 385.28 382.72c17.152-46.976 34.304-93.952 51.648-141.504-31.808 0-62.784 0-94.528 0C356.416 288.512 370.304 335.488 384.128 382.464z" /></svg>