<?xml version="1.0" standalone="no"?><!DOCTYPE svg PUBLIC "-//W3C//DTD SVG 1.1//EN" "http://www.w3.org/Graphics/SVG/1.1/DTD/svg11.dtd"><svg class="icon" width="16px" height="16.00px" viewBox="0 0 1024 1024" version="1.1" xmlns="http://www.w3.org/2000/svg"><path fill="#FF232E" d="M911.872 450.048c-13.312 0-25.6-9.216-28.672-23.04C843.776 252.928 691.2 131.072 512 131.072S180.224 252.928 140.8 427.52c-3.584 15.872-19.456 25.6-34.816 22.016-15.872-3.584-25.6-19.456-22.016-34.816 45.568-201.216 221.696-342.016 428.544-342.016s382.976 140.8 428.544 342.016c3.584 15.872-6.144 31.232-22.016 34.816C915.968 450.048 913.92 450.048 911.872 450.048zM512 951.296c-206.848 0-382.976-140.8-428.544-342.016-3.584-15.872 6.144-31.232 22.016-34.816 15.872-3.584 31.744 6.144 34.816 22.016 39.424 174.592 192.512 296.448 371.2 296.448s331.776-121.856 371.2-296.448c3.584-15.872 19.456-25.6 34.816-22.016 15.872 3.584 25.6 19.456 22.016 34.816C894.976 811.008 718.336 951.296 512 951.296zM450.048 806.4c-4.096 0-8.704-1.024-12.8-3.072-14.848-7.168-20.992-24.576-13.824-38.912l192-402.432L339.968 361.984c-16.384 0-29.184-13.312-29.184-29.184 0-16.384 13.312-29.184 29.184-29.184l322.56 0c10.24 0 19.456 5.12 24.576 13.824 5.12 8.704 6.144 18.944 1.536 28.16l-211.968 444.416C471.552 800.256 461.312 806.4 450.048 806.4zM911.872 450.048c-5.12 0-10.24-1.024-14.848-4.096l-88.576-51.2c-13.824-8.192-18.944-26.112-10.752-39.936 8.192-13.824 26.112-18.944 39.936-10.752l63.488 36.864 36.864-63.488c8.192-13.824 26.112-18.944 39.936-10.752 13.824 8.192 18.944 26.112 10.752 39.936l-51.2 88.576C931.84 444.928 922.112 450.048 911.872 450.048zM60.928 721.408c-5.12 0-10.24-1.024-14.848-4.096-13.824-8.192-18.944-26.112-10.752-39.936l51.2-88.576c4.096-6.656 10.24-11.776 17.92-13.824 7.68-2.048 15.36-1.024 22.016 3.072l88.576 51.2c13.824 8.192 18.944 26.112 10.752 39.936-8.192 13.824-26.112 18.944-39.936 10.752L122.88 643.072 86.016 706.56C80.896 715.776 70.656 721.408 60.928 721.408z" /></svg>